<?xml version="1.0" encoding="utf-8"?>
<!-- Generator: Adobe Illustrator 26.2.0, SVG Export Plug-In . SVG Version: 6.00 Build 0)  -->
<svg version="1.1" id="Layer_1" xmlns="http://www.w3.org/2000/svg" xmlns:xlink="http://www.w3.org/1999/xlink" x="0px" y="0px"
	 viewBox="0 0 1174 1280" style="enable-background:new 0 0 1174 1280;" xml:space="preserve">
<g transform="translate(0.000000,1280.000000) scale(0.100000,-0.100000)">
	<path d="M4425,12777c-33-13-100-45-150-71c-379-205-660-325-1163-497c-373-127-591-189-982-279c-288-67-505-172-631-306
		c-96-103-206-267-284-424c-74-146-225-631-225-720c0-46-33-122-85-197c-57-80-108-180-125-243c-7-25-18-91-25-147
		c-11-93-16-106-45-140c-74-83-112-218-125-443c-14-224-31-299-160-715C217,7929,88,7425,46,7125c-23-170-40-450-41-665
		c0-177,2-198,20-229c14-24,33-38,60-47c22-7,101-34,175-60c494-172,676-225,830-243c47-6,171-15,275-21c553-30,550-30,628-94
		c23-19,75-50,115-69c40-20,79-41,87-47c31-25,13-119-73-390c-68-214-77-270-76-495c0-192,16-350,44-445c18-61,11-118-29-243
		c-52-160-59-187-76-282c-33-180-11-367,65-555c23-58,55-138,71-177c48-120,48-167,0-310c-67-202-76-331-33-468c25-76,39-266,52-720
		c13-415,25-626,45-738c27-155,83-358,110-399c49-73,47-73,525-73c550-1,623-10,1165-155c339-91,577-141,775-164c74-9,172-21,216-27
		c120-17,1068-5,1274,16c501,50,805,136,1575,445c578,232,843,312,1155,350c140,17,267,39,295,52s47,56,66,153c21,108,18,684-4,880
		c-22,184-49,322-82,414c-14,37-25,85-25,105c0,22,29,111,70,218c122,312,150,436,150,668c0,179-9,228-60,346c-52,118-52,173-5,435
		c53,291,63,427,71,987l7,502h119c216,0,330,38,475,159c45,37,105,78,135,89c29,12,139,40,244,61c246,51,330,72,543,133
		c452,128,734,261,757,354c25,99-230,1009-571,2044c-63,190-121,372-129,405c-11,44-15,109-14,250c2,218-8,268-82,385
		c-78,124-99,179-115,296c-71,508-233,1141-356,1388c-152,305-399,488-961,709c-91,37-382,142-645,235c-750,265-940,346-1193,509
		c-161,103-181,113-229,113c-22,0-97-21-168-46c-241-86-481-136-808-170c-239-25-777-25-955-1c-299,42-516,107-849,256
		c-62,28-127,51-145,50C4499,12799,4458,12789,4425,12777z M4560,12433c131-219,259-382,441-559c197-191,322-277,501-344
		c298-112,466-120,743-33c113,35,332,142,444,217c163,109,511,444,670,645c36,46,73,92,81,103c14,18,19,16,111-46
		c110-73,139-105,139-150c0-61-147-315-287-494c-295-378-737-627-1229-693c-146-19-423-7-573,26c-494,106-925,402-1218,835
		c-116,172-195,331-197,399c-1,40,3,47,41,79c37,31,228,149,245,151C4476,12570,4515,12508,4560,12433z M4938,12386
		c324-106,392-118,769-137c172-8,291-8,483,0c451,21,624,40,870,101c68,16,133,30,143,30c17,0,17-2-3-29c-50-72-271-288-320-315
		c-66-36-292-93-423-106c-170-18-717-25-847-11c-214,22-545,107-644,165c-25,14-65,52-89,84c-63,82-164,227-182,262
		c-14,27-14,30,0,30C4704,12460,4813,12427,4938,12386z M4125,12150c43-80,96-171,118-204c62-92,202-249,353-397
		c220-214,291-268,472-359c306-153,573-219,879-220c460,0,900,161,1259,463c203,170,366,373,525,656c35,62,73,120,85,128
		c19,12,47,4,285-86c145-54,433-158,639-231c980-346,1165-433,1380-649c79-80,104-113,147-196c46-89,143-347,143-380
		c0-35-291-516-338-558c-19-18-20-17-30,42c-22,126-94,235-163,246c-100,17-204-27-197-84c3-26,4-26,93-26c118-1,112,1,135-44
		c24-48,35-132,26-195c-6-41-13-50-49-73c-23-14-106-91-183-170c-78-78-146-143-153-143c-24,0-13,80,52,390c33,153,37,184,26,201
		c-23,37-85-58-118-181c-30-112-87-424-111-605c-30-232-47-548-80-1440c-40-1105-60-1613-70-1773c-16-234-49-351-417-1452
		c-421-1263-610-1736-937-2342l-48-88h40c33,0,45,6,72,37c152,172,440,835,776,1783c48,135,122,340,166,455c44,116,118,316,165,445
		c86,236,126,330,142,330c15,0,21-103,21-400c0-412-15-600-80-975c-57-327-108-468-317-875c-179-349-366-677-633-1115
		c-144-234-212-357-225-402c-8-31,35-54,61-32c78,65,633,1013,956,1634c173,334,181,343,223,260c18-35,20-59,19-195
		c0-129-5-173-26-266c-45-193-175-510-287-702c-61-104-160-219-408-474c-209-215-303-325-303-354c0-31,58-4,152,73
		c95,77,433,425,551,568c55,66,103,121,107,123c17,7,69-193,90-343c37-272,54-759,30-846c-13-48-41-59-166-69
		c-291-24-630-128-1299-397c-691-279-1160-400-1704-443c-204-15-760-13-916,5c-295,33-612,98-1025,210c-151,41-331,86-400,99
		c-263,53-624,86-951,86c-179,0-198,4-215,47c-22,51-51,239-68,433c-21,242-25,318-37,695c-11,356-24,478-64,595
		c-31,89-29,125,16,256c81,240,78,367-16,584c-124,286-124,451,1,831c30,91,54,175,54,186c0,12-13,76-29,144c-41,174-55,299-48,448
		c6,140,22,227,74,405c20,67,47,164,60,216s29,99,34,105c15,15,35-15,54-85c35-133,246-715,381-1050c190-474,688-1350,990-1740
		c119-154,344-383,367-374c37,14,7,77-96,201c-218,263-307,387-454,633c-316,531-717,1335-858,1721c-159,434-498,1522-551,1769
		c-80,372-124,685-128,923c-2,120-11,225-29,347c-60,403-82,737-74,1155c6,285,16,418,62,825c23,205,30,426,16,501
		c-28,140-82,227-189,306c-43,31-96,74-118,95c-48,46-95,60-145,44c-48-16-66-59-79-196c-13-134-28-220-39-220
		c-25,0-103,114-176,260c-72,141-67,180,46,419c112,235,245,403,386,487c112,66,177,88,495,164c502,121,1189,344,1593,518
		c77,33,143,57,146,54C4045,12298,4082,12230,4125,12150z M5398,11824c118-31,278-43,552-44c274,0,504,15,603,41c43,11,82,17,86,14
		c16-17-178-130-324-188s-233-72-445-72c-177,1-188,2-252,27c-163,65-371,186-403,235l-17,26l51-7C5278,11852,5344,11838,5398,11824
		z M1808,10633c51-36,118-118,147-178c34-68,49-186,41-320c-9-144-24-230-45-257l-18-21l-50,27c-131,72-293,216-349,312
		c-35,60-24,75,52,67c54-6,54-6,68,28c8,19,19,77,26,129c12,95,35,214,46,231C1736,10668,1772,10660,1808,10633z M10472,10419
		c41-112,106-460,133-719c22-209,27-223,90-289c29-31,63-76,76-101c23-43,24-52,21-226c-3-217-1-222,142-659
		c207-630,479-1522,480-1574c1-33-2-35-59-58c-117-46-352-115-682-198c-332-85-405-109-417-140c-22-58,68-49,449,46
		c110,28,277,72,372,100c188,54,328,89,356,89c20,0,57-72,78-151c17-64,0-88-96-135c-88-42-396-145-611-204c-198-54-525-120-597-120
		h-57v33c0,17,7,145,15,282c30,524,46,1207,66,2890l10,900l51,80c82,131,139,206,151,202C10450,10465,10462,10443,10472,10419z
		 M1286,10338c31-51,88-130,126-175c102-120,310-317,427-403l102-75l-5-65c-3-36-11-126-17-200c-22-251,0-1003,41-1400
		c11-107,31-330,45-495s32-351,40-413c23-181,117-568,239-985c60-206,60-257-1-257c-45,0-91,28-175,108c-112,106-120,108-318,92
		c-289-24-526-1-851,80c-289,72-680,220-732,277c-21,24-25,96-7,118c23,28,48,22,514-126c47-15,103-11,110,7c23,59-88,119-488,264
		l-118,43l6,61c14,126,92,527,146,754c70,287,223,815,314,1081c74,217,129,489,146,730c5,70,14,140,20,155c6,16,35,62,65,103
		c66,91,90,161,100,298c8,119,19,147,85,231s89,129,96,189c8,74,13,95,24,95C1225,10430,1254,10388,1286,10338z M10135,9928
		c16-72-34-3172-55-3404c-14-159-52-232-163-316c-83-64-190-116-273-133c-78-16-284-34-284-25c0,4,7,51,15,106
		c35,239,54,795,65,1854c11,1072,24,1279,85,1405c40,82,338,445,366,445c36,0,8-214-100-770c-85-438-138-660-207-872
		c-62-191-104-361-104-418c0-39,4-52,22-64c25-18,41-9,63,35c26,50,135,459,239,894c67,281,107,498,167,889c41,274,52,308,117,379
		C10121,9968,10127,9967,10135,9928z M10038,6102c8-57-133-218-235-268c-75-37-199-44-329-19c-93,18-134,36-134,59
		c0,26,30,38,112,47c116,13,289,70,431,145c67,35,129,62,137,61S10036,6115,10038,6102z"/>
	<path d="M3056,5482c-9-29,25-116,119-303c575-1145,1652-2408,2685-3147c161-116,259-169,325-179c43-5,45-4,45,19
		c0,35-45,74-305,263c-374,272-511,386-827,688c-355,338-698,730-1040,1185c-288,382-509,728-767,1196c-124,225-174,296-211,296
		C3070,5500,3059,5492,3056,5482z"/>
	<path d="M2403,2124c-8-22,16-40,172-123c195-105,980-467,1320-609c370-155,635-231,708-203s-1,71-298,176
		c-403,142-868,335-1414,587C2476,2143,2418,2163,2403,2124z"/>
</g>
</svg>
